<svg xmlns="http://www.w3.org/2000/svg" width="194" height="218" fill-rule="evenodd" clip-rule="evenodd" image-rendering="optimizeQuality" shape-rendering="geometricPrecision" text-rendering="geometricPrecision" viewBox="0 0 66704 75030"><path fill="#ff7069" d="M36655 910l26748 15444c2100,1212 3302,3294 3302,5719l0 30885c0,2425 -1202,4507 -3302,5719l-26748 15444c-2100,1213 -4504,1213 -6605,0l-26748 -15444c-2100,-1212 -3302,-3294 -3302,-5719l0 -30885c0,-2425 1202,-4507 3302,-5719l26748 -15444c2100,-1213 4504,-1213 6605,0z"/><polygon fill="#c9cacc" points="28882 55791 27574 60928 23177 64616 23177 65406 33352 65406 43527 65406 43527 64616 39130 60928 37822 55791 33352 55725"/><polygon fill="#fff" points="23177 64616 23177 65406 33352 65406 43527 65406 43527 64616"/><path fill="#666" d="M10649 20297l45406 0c1492,0 2712,1220 2712,2712l0 27970 -50830 0 0 -27970c0,-1492 1220,-2712 2712,-2712z"/><path fill="#6b7f9e" d="M9779 49138l47147 0 0 -26129c0,-475 -395,-871 -871,-871l-45406 0c-475,0 -871,395 -871,871l0 26129z"/><path fill="#fff" d="M58767 50979l0 2966c0,1492 -1345,2713 -2990,2713l-44850 0c-1645,0 -2990,-1220 -2990,-2713l0 -2966 50830 0z"/><rect width="2091" height="6092" x="36249" y="40476" fill="#83cf8f"/><rect width="2091" height="11590" x="40388" y="34977" fill="#ffe356"/><rect width="2091" height="8841" x="44526" y="37726" fill="#83cf8f"/><rect width="2091" height="15849" x="48665" y="30719" fill="#ffe356"/><path fill="#ffe356" d="M23162 25897l-3789 3716 4013 3473c806,-931 1294,-2145 1294,-3473 0,-1447 -579,-2759 -1518,-3716z"/><path fill="#83cf8f" d="M19528 23500l0 5307 3789 -3716c-963,-982 -2305,-1591 -3789,-1591z"/><path fill="#fff" d="M19081 24563c-2931,0 -5307,2376 -5307,5307 0,2931 2376,5307 5307,5307 1603,0 3040,-711 4013,-1834l-4013 -3473 0 -5307z"/><path fill="#ffe356" d="M15242 37467l11854 0 0 538 -11854 0 0 -538zm0 3529l6823 0 0 538 -6823 0 0 -538zm0 -1176l11854 0 0 538 -11854 0 0 -538zm0 -1176l11854 0 0 538 -11854 0 0 -538z"/><path fill="#83cf8f" d="M15242 43613l10033 0 0 538 -10033 0 0 -538zm0 3529l4825 0 0 538 -4825 0 0 -538zm0 -1176l8504 0 0 538 -8504 0 0 -538zm0 -1176l11854 0 0 538 -11854 0 0 -538z"/><polygon fill="#fff" fill-rule="nonzero" points="50684 25334 49695 28302 49532 26707 41786 32062 41593 32199 41409 32050 39151 30237 33352 35057 39019 29330 39203 29478 41616 31416 48969 25945 47539 25510"/><circle cx="33352" cy="53544" r="1007" fill="#e4e7ed"/></svg>